<?xml version="1.0" encoding="utf-8"?>
<!-- Generator: Adobe Illustrator 16.0.0, SVG Export Plug-In . SVG Version: 6.00 Build 0)  -->
<!DOCTYPE svg PUBLIC "-//W3C//DTD SVG 1.1//EN" "http://www.w3.org/Graphics/SVG/1.1/DTD/svg11.dtd">
<svg version="1.1" id="Layer_1" xmlns="http://www.w3.org/2000/svg" xmlns:xlink="http://www.w3.org/1999/xlink" x="0px" y="0px"
	 width="466px" height="254px" viewBox="0 0 466 254" enable-background="new 0 0 466 254" xml:space="preserve">
<path fill="#666666" d="M312.096,153.463l-39.927-39.923c9.926-11.934,15.905-27.255,15.905-43.955
	c0-37.968-30.887-68.854-68.854-68.854c-37.967,0-68.854,30.886-68.854,68.854c0,37.964,30.887,68.851,68.854,68.851
	c16.696,0,32.021-5.976,43.956-15.901l39.926,39.927c1.242,1.242,2.87,1.863,4.497,1.863c1.628,0,3.255-0.621,4.497-1.863
	C314.58,159.977,314.58,155.946,312.096,153.463L312.096,153.463z M163.086,69.585c0-30.953,25.181-56.134,56.134-56.134
	s56.134,25.181,56.134,56.134c0,30.953-25.181,56.13-56.134,56.13S163.086,100.538,163.086,69.585L163.086,69.585z M163.086,69.585"
	/>
<path fill="#666666" d="M219.216,36.337c-13.393,0-24.287,10.896-24.287,24.283c0,20.327,18.981,39.537,19.79,40.349
	c1.242,1.238,2.87,1.859,4.497,1.859c1.627,0,3.255-0.621,4.496-1.859c0.808-0.809,19.798-20.022,19.798-40.349
	C243.51,47.232,232.611,36.337,219.216,36.337L219.216,36.337z M219.2,86.803c-5.126-6.514-11.549-16.846-11.549-26.183
	c0-6.373,5.189-11.562,11.565-11.562c6.381,0,11.574,5.189,11.574,11.562C230.79,70.467,223.957,80.803,219.2,86.803L219.2,86.803z
	 M219.2,86.803"/>
<g>
	<path fill="#666666" d="M37.124,221.424v-29.593h4.143l15.196,21.021h0.328v-21.021h4.471v29.593h-4.143l-15.196-21.021h-0.328
		v21.021H37.124z"/>
	<path fill="#666666" d="M90.878,206.617c0,9.516-5.209,15.524-13.781,15.524c-8.593,0-13.822-5.988-13.822-15.524
		c0-9.557,5.332-15.504,13.822-15.504C85.628,191.113,90.878,197.081,90.878,206.617z M67.971,206.617
		c0,6.829,3.445,11.238,9.126,11.238c5.619,0,9.085-4.409,9.085-11.238c0-6.87-3.466-11.218-9.085-11.218
		C71.519,195.399,67.971,199.747,67.971,206.617z"/>
	<path fill="#666666" d="M111.764,191.831c5.783,0,9.762,3.999,9.762,9.864c0,5.783-4.102,9.762-9.905,9.762h-6.85v9.967h-4.594
		v-29.593H111.764z M104.771,207.417h5.783c3.958,0,6.275-2.051,6.275-5.722c0-3.753-2.235-5.804-6.275-5.804h-5.783V207.417z"/>
	<path fill="#666666" d="M127.826,221.424h-4.594v-29.593h11.71c5.968,0,9.803,3.548,9.803,9.105c0,3.979-2.133,7.219-5.742,8.449
		l6.645,12.038h-5.312l-6.029-11.279h-6.48V221.424z M127.826,206.228h6.604c3.548,0,5.599-1.887,5.599-5.188
		c0-3.22-2.174-5.168-5.722-5.168h-6.48V206.228z"/>
	<path fill="#666666" d="M173.48,206.617c0,9.516-5.209,15.524-13.781,15.524c-8.593,0-13.822-5.988-13.822-15.524
		c0-9.557,5.332-15.504,13.822-15.504C168.23,191.113,173.48,197.081,173.48,206.617z M150.573,206.617
		c0,6.829,3.445,11.238,9.126,11.238c5.619,0,9.085-4.409,9.085-11.238c0-6.87-3.466-11.218-9.085-11.218
		C154.121,195.399,150.573,199.747,150.573,206.617z"/>
	<path fill="#666666" d="M187.081,191.831c5.783,0,9.762,3.999,9.762,9.864c0,5.783-4.102,9.762-9.905,9.762h-6.85v9.967h-4.594
		v-29.593H187.081z M180.087,207.417h5.783c3.958,0,6.275-2.051,6.275-5.722c0-3.753-2.235-5.804-6.275-5.804h-5.783V207.417z"/>
	<path fill="#666666" d="M217.334,221.424h-18.785v-29.593h18.785v4.184h-14.191v8.367h13.433v3.979h-13.433v8.88h14.191V221.424z"
		/>
	<path fill="#666666" d="M224.352,221.424h-4.594v-29.593h11.71c5.968,0,9.803,3.548,9.803,9.105c0,3.979-2.133,7.219-5.742,8.449
		l6.645,12.038h-5.312l-6.029-11.279h-6.48V221.424z M224.352,206.228h6.604c3.548,0,5.599-1.887,5.599-5.188
		c0-3.22-2.174-5.168-5.722-5.168h-6.48V206.228z"/>
	<path fill="#666666" d="M251.118,221.424v-25.409h-9.311v-4.184h23.195v4.184h-9.291v25.409H251.118z"/>
	<path fill="#666666" d="M274.583,221.424v-11.936l-10.418-17.657h5.107l7.443,12.817h0.35l7.443-12.817h5.107l-10.439,17.657
		v11.936H274.583z"/>
	<path fill="#666666" d="M297.868,221.424v-29.593h18.478v4.184h-13.884v9.085h12.715v4.061h-12.715v12.264H297.868z"/>
	<path fill="#666666" d="M344.486,206.617c0,9.516-5.209,15.524-13.781,15.524c-8.593,0-13.822-5.988-13.822-15.524
		c0-9.557,5.332-15.504,13.822-15.504C339.236,191.113,344.486,197.081,344.486,206.617z M321.579,206.617
		c0,6.829,3.445,11.238,9.126,11.238c5.619,0,9.085-4.409,9.085-11.238c0-6.87-3.466-11.218-9.085-11.218
		C325.127,195.399,321.579,199.747,321.579,206.617z"/>
	<path fill="#666666" d="M351.177,210.821c0,4.143,2.686,7.014,7.383,7.014c4.717,0,7.402-2.871,7.402-7.014v-18.99h4.594v19.4
		c0,6.419-4.572,10.91-11.996,10.91s-11.977-4.491-11.977-10.91v-19.4h4.594V210.821z"/>
	<path fill="#666666" d="M373.842,221.424v-29.593h4.143l15.196,21.021h0.328v-21.021h4.471v29.593h-4.143l-15.196-21.021h-0.328
		v21.021H373.842z"/>
	<path fill="#666666" d="M411.888,191.831c8.777,0,13.925,5.394,13.925,14.704c0,9.454-5.106,14.889-13.925,14.889h-10.685v-29.593
		H411.888z M405.797,217.24h5.578c6.193,0,9.762-3.855,9.762-10.644c0-6.686-3.63-10.582-9.762-10.582h-5.578V217.24z"/>
</g>
<g>
	<path fill="#666666" d="M41.606,237.328c2.245,0,3.8,1.579,3.8,3.841c0,2.221-1.587,3.792-3.816,3.792h-2.985v4.235h-1.48v-11.868
		H41.606z M38.604,243.645h2.615c1.686,0,2.665-0.904,2.665-2.476c0-1.628-0.946-2.524-2.665-2.524h-2.615V243.645z"/>
	<path fill="#666666" d="M54.682,249.196h-7.205v-11.868h1.48v10.536h5.724V249.196z"/>
	<path fill="#666666" d="M64.05,249.196h-7.353v-11.868h7.353v1.333h-5.873v3.808h5.568v1.315h-5.568v4.08h5.873V249.196z"/>
	<path fill="#666666" d="M72.907,245.8h-4.721l-1.192,3.396h-1.555l4.375-11.868h1.464l4.375,11.868H74.1L72.907,245.8z
		 M68.623,244.541h3.849l-1.859-5.296h-0.132L68.623,244.541z"/>
	<path fill="#666666" d="M78.318,246.096c0.181,1.242,1.365,2.031,3.051,2.031c1.595,0,2.771-0.863,2.771-2.039
		c0-1.012-0.74-1.653-2.377-2.064l-1.521-0.396c-2.146-0.542-3.076-1.513-3.076-3.199c0-2.015,1.686-3.38,4.195-3.38
		c2.294,0,4.005,1.365,4.128,3.281h-1.488c-0.206-1.217-1.209-1.94-2.689-1.94c-1.579,0-2.624,0.789-2.624,1.99
		c0,0.929,0.649,1.464,2.286,1.883l1.242,0.329c2.459,0.617,3.446,1.571,3.446,3.314c0,2.18-1.719,3.569-4.433,3.569
		c-2.517,0-4.252-1.332-4.408-3.38H78.318z"/>
	<path fill="#666666" d="M95.128,249.196h-7.353v-11.868h7.353v1.333h-5.873v3.808h5.568v1.315h-5.568v4.08h5.873V249.196z"/>
	<path fill="#666666" d="M102.806,246.096c0.181,1.242,1.365,2.031,3.051,2.031c1.595,0,2.771-0.863,2.771-2.039
		c0-1.012-0.74-1.653-2.377-2.064l-1.521-0.396c-2.146-0.542-3.076-1.513-3.076-3.199c0-2.015,1.686-3.38,4.195-3.38
		c2.294,0,4.005,1.365,4.128,3.281h-1.488c-0.206-1.217-1.209-1.94-2.689-1.94c-1.579,0-2.624,0.789-2.624,1.99
		c0,0.929,0.649,1.464,2.286,1.883l1.242,0.329c2.459,0.617,3.446,1.571,3.446,3.314c0,2.18-1.719,3.569-4.433,3.569
		c-2.517,0-4.252-1.332-4.408-3.38H102.806z"/>
	<path fill="#666666" d="M119.616,249.196h-7.353v-11.868h7.353v1.333h-5.873v3.808h5.568v1.315h-5.568v4.08h5.873V249.196z"/>
	<path fill="#666666" d="M129.155,249.196h-7.205v-11.868h1.48v10.536h5.724V249.196z"/>
	<path fill="#666666" d="M138.523,249.196h-7.353v-11.868h7.353v1.333h-5.873v3.808h5.568v1.315h-5.568v4.08h5.873V249.196z"/>
	<path fill="#666666" d="M140.398,243.267c0-3.833,2.007-6.218,5.231-6.218c2.5,0,4.449,1.57,4.803,3.857h-1.505
		c-0.395-1.53-1.661-2.492-3.298-2.492c-2.278,0-3.709,1.875-3.709,4.853s1.431,4.844,3.717,4.844c1.653,0,2.912-0.847,3.29-2.221
		h1.505c-0.395,2.18-2.27,3.586-4.795,3.586C142.414,249.476,140.398,247.091,140.398,243.267z"/>
	<path fill="#666666" d="M155.242,249.196v-10.535h-3.825v-1.333h9.129v1.333h-3.824v10.535H155.242z"/>
	<path fill="#666666" d="M177.32,243.258c0,3.792-2.04,6.218-5.428,6.218c-3.405,0-5.453-2.418-5.453-6.218
		c0-3.815,2.097-6.209,5.453-6.209C175.264,237.049,177.32,239.45,177.32,243.258z M167.96,243.258c0,2.944,1.464,4.853,3.931,4.853
		c2.435,0,3.907-1.908,3.907-4.853c0-2.969-1.48-4.844-3.907-4.844C169.474,238.414,167.96,240.289,167.96,243.258z"/>
	<path fill="#666666" d="M182.129,249.196v-10.535h-3.825v-1.333h9.129v1.333h-3.824v10.535H182.129z"/>
	<path fill="#666666" d="M197.368,249.196v-5.403h-6.514v5.403h-1.48v-11.868h1.48v5.132h6.514v-5.132h1.48v11.868H197.368z"/>
	<path fill="#666666" d="M208.88,249.196h-7.353v-11.868h7.353v1.333h-5.873v3.808h5.568v1.315h-5.568v4.08h5.873V249.196z"/>
	<path fill="#666666" d="M212.695,249.196h-1.48v-11.868h4.532c2.287,0,3.783,1.398,3.783,3.537c0,1.652-0.896,2.936-2.385,3.404
		l2.747,4.927h-1.735l-2.541-4.696h-2.92V249.196z M212.695,243.185h2.92c1.521,0,2.385-0.814,2.385-2.271
		c0-1.423-0.921-2.27-2.451-2.27h-2.854V243.185z"/>
	<path fill="#666666" d="M226.286,249.196v-11.868h7.205v1.333h-5.724v4.079h5.255v1.315h-5.255v5.141H226.286z"/>
	<path fill="#666666" d="M235.58,249.196v-11.868h1.48v11.868H235.58z"/>
	<path fill="#666666" d="M246.95,249.196h-7.204v-11.868h1.48v10.536h5.724V249.196z"/>
	<path fill="#666666" d="M250.489,249.196v-10.535h-3.824v-1.333h9.129v1.333h-3.824v10.535H250.489z"/>
	<path fill="#666666" d="M265.087,249.196h-7.353v-11.868h7.353v1.333h-5.872v3.808h5.567v1.315h-5.567v4.08h5.872V249.196z"/>
	<path fill="#666666" d="M268.902,249.196h-1.48v-11.868h4.531c2.286,0,3.783,1.398,3.783,3.537c0,1.652-0.896,2.936-2.385,3.404
		l2.747,4.927h-1.735l-2.542-4.696h-2.919V249.196z M268.902,243.185h2.919c1.521,0,2.386-0.814,2.386-2.271
		c0-1.423-0.922-2.27-2.451-2.27h-2.854V243.185z"/>
	<path fill="#666666" d="M279.009,246.096c0.182,1.242,1.365,2.031,3.052,2.031c1.596,0,2.771-0.863,2.771-2.039
		c0-1.012-0.74-1.653-2.377-2.064l-1.521-0.396c-2.146-0.542-3.076-1.513-3.076-3.199c0-2.015,1.687-3.38,4.194-3.38
		c2.295,0,4.006,1.365,4.129,3.281h-1.488c-0.206-1.217-1.209-1.94-2.689-1.94c-1.579,0-2.624,0.789-2.624,1.99
		c0,0.929,0.65,1.464,2.287,1.883l1.241,0.329c2.459,0.617,3.446,1.571,3.446,3.314c0,2.18-1.719,3.569-4.433,3.569
		c-2.517,0-4.252-1.332-4.408-3.38H279.009z"/>
	<path fill="#666666" d="M295.963,249.196v-10.535h-3.824v-1.333h9.129v1.333h-3.824v10.535H295.963z"/>
	<path fill="#666666" d="M313.136,243.258c0,3.792-2.039,6.218-5.428,6.218c-3.405,0-5.453-2.418-5.453-6.218
		c0-3.815,2.098-6.209,5.453-6.209C311.08,237.049,313.136,239.45,313.136,243.258z M303.776,243.258
		c0,2.944,1.464,4.853,3.932,4.853c2.435,0,3.906-1.908,3.906-4.853c0-2.969-1.48-4.844-3.906-4.844
		C305.29,238.414,303.776,240.289,303.776,243.258z"/>
	<path fill="#666666" d="M324.685,249.476c-3.281,0-5.379-2.418-5.379-6.218c0-3.75,2.13-6.209,5.379-6.209
		c2.632,0,4.54,1.464,4.968,3.816h-1.505c-0.511-1.604-1.703-2.451-3.463-2.451c-2.353,0-3.857,1.892-3.857,4.844
		c0,2.994,1.48,4.853,3.865,4.853c2.122,0,3.562-1.356,3.562-3.363v-0.288h-3.339v-1.3h4.812v1.448
		C329.727,247.535,327.72,249.476,324.685,249.476z"/>
	<path fill="#666666" d="M339.347,249.196h-7.353v-11.868h7.353v1.333h-5.872v3.808h5.567v1.315h-5.567v4.08h5.872V249.196z"/>
	<path fill="#666666" d="M344.766,249.196v-10.535h-3.824v-1.333h9.129v1.333h-3.824v10.535H344.766z"/>
	<path fill="#666666" d="M357.904,249.196h-1.48v-11.868h4.531c2.286,0,3.783,1.398,3.783,3.537c0,1.652-0.896,2.936-2.385,3.404
		l2.747,4.927h-1.735l-2.542-4.696h-2.919V249.196z M357.904,243.185h2.919c1.521,0,2.386-0.814,2.386-2.271
		c0-1.423-0.922-2.27-2.451-2.27h-2.854V243.185z"/>
	<path fill="#666666" d="M374.435,249.196h-7.353v-11.868h7.353v1.333h-5.872v3.808h5.567v1.315h-5.567v4.08h5.872V249.196z"/>
	<path fill="#666666" d="M377.698,246.096c0.182,1.242,1.365,2.031,3.052,2.031c1.596,0,2.771-0.863,2.771-2.039
		c0-1.012-0.74-1.653-2.377-2.064l-1.521-0.396c-2.146-0.542-3.076-1.513-3.076-3.199c0-2.015,1.687-3.38,4.194-3.38
		c2.295,0,4.006,1.365,4.129,3.281h-1.488c-0.206-1.217-1.209-1.94-2.689-1.94c-1.579,0-2.624,0.789-2.624,1.99
		c0,0.929,0.65,1.464,2.287,1.883l1.241,0.329c2.459,0.617,3.446,1.571,3.446,3.314c0,2.18-1.719,3.569-4.433,3.569
		c-2.517,0-4.252-1.332-4.408-3.38H377.698z"/>
	<path fill="#666666" d="M388.678,245.019c0,1.793,1.176,3.092,3.231,3.092c2.057,0,3.232-1.299,3.232-3.092v-7.69h1.48v7.789
		c0,2.533-1.769,4.358-4.713,4.358s-4.712-1.825-4.712-4.358v-7.789h1.48V245.019z"/>
	<path fill="#666666" d="M406.547,249.196h-7.204v-11.868h1.48v10.536h5.724V249.196z"/>
	<path fill="#666666" d="M410.085,249.196v-10.535h-3.824v-1.333h9.129v1.333h-3.824v10.535H410.085z"/>
	<path fill="#666666" d="M418.259,246.096c0.182,1.242,1.365,2.031,3.052,2.031c1.596,0,2.771-0.863,2.771-2.039
		c0-1.012-0.74-1.653-2.377-2.064l-1.521-0.396c-2.146-0.542-3.076-1.513-3.076-3.199c0-2.015,1.687-3.38,4.194-3.38
		c2.295,0,4.006,1.365,4.129,3.281h-1.488c-0.206-1.217-1.209-1.94-2.689-1.94c-1.579,0-2.624,0.789-2.624,1.99
		c0,0.929,0.65,1.464,2.287,1.883l1.241,0.329c2.459,0.617,3.446,1.571,3.446,3.314c0,2.18-1.719,3.569-4.433,3.569
		c-2.517,0-4.252-1.332-4.408-3.38H418.259z"/>
</g>
</svg>
